<?xml version="1.0" encoding="utf-8"?><svg xml:space="preserve" viewBox="0 0 100 100" y="0" x="0" xmlns="http://www.w3.org/2000/svg" id="Layer_1" version="1.1" width="128px" height="128px" xmlns:xlink="http://www.w3.org/1999/xlink" style="width:100%;height:100%;background-size:initial;background-repeat-y:initial;background-repeat-x:initial;background-position-y:initial;background-position-x:initial;background-origin:initial;background-image:initial;background-color:rgb(255, 255, 255);background-clip:initial;background-attachment:initial;animation-play-state:paused" ><g class="ldl-scale" style="transform-origin:50% 50%;transform:rotate(0deg) scale(0.8, 0.8);animation-play-state:paused" ><circle fill="#333" r="40" cy="50" cx="50" style="fill:rgb(51, 51, 51);animation-play-state:paused" ></circle>
<path fill="#fff" d="M66.764 43.987l-3.768-2.176c-.354-.204-.465-.678-.247-1.056l3.287-5.694c.981-1.698.481-3.829-1.113-4.75l-3.797-2.192c-1.595-.921-3.69-.288-4.67 1.411l-3.287 5.694c-.218.378-.684.518-1.038.313l-3.768-2.176c-2.078-1.2-4.808-.375-6.086 1.838l-4.006 6.939-1.006 1.742-2.371 4.107-.503.871-7.832 13.566a1.032 1.032 0 0 0-.096.826.912.912 0 0 0 .541.58l3.382 1.277a.971.971 0 0 0 1.049-.269l1.946-2.099-.483 2.452c-.092.467.144.921.568 1.079l6.138 2.318a.972.972 0 0 0 1.078-.301l1.414-1.657-.464 1.795c-.126.484.111.974.554 1.138l5.852 2.21a.97.97 0 0 0 1.06-.281l.048-.053c-.039.428.189.827.583.973l3.878 1.465c.437.165.942-.031 1.19-.461l5.533-9.583.503-.871 2.371-4.107 1.006-1.742 4.006-6.939c1.277-2.211.626-4.988-1.452-6.187zM56.515 66.663c-.593.007-1.175.101-1.69-.108-.667-.271-.883-1.11-1-1.847-.116-.737-.274-1.576-.904-1.924-.525-.29-1.188-.124-1.783.047-1.547.446-2.956.867-3.917-.813-.31-.542-.41-1.188-.525-1.814-.116-.626-.262-1.269-.643-1.758-.439-.564-1.157-.854-1.876-.856-.719-.002-1.437.264-2.065.662-.843.534-1.938 1.356-2.543.2-.469-.895-.192-2.17-.82-3.064-.534-.761-1.625-1.031-2.491-.617-.313.15-.601.379-.935.453-.291.065-1.136-.615-1.776-1.127l2.479-4.293 22.668 13.087-2.179 3.772zm-16.609-23.58l4.006-6.939c.723-1.252 2.268-1.719 3.444-1.04l3.768 2.176c1.257.725 2.907.227 3.68-1.111l3.287-5.694c.426-.738 1.336-1.012 2.029-.613l3.797 2.192c.692.4.91 1.325.484 2.063l-3.287 5.694c-.773 1.338-.379 3.017.877 3.742l3.768 2.176c1.176.679 1.544 2.25.821 3.503l-4.006 6.939-22.668-13.088z" style="fill:rgb(255, 255, 255);animation-play-state:paused" ></path>
<metadata xmlns:d="https://loading.io/stock/" style="animation-play-state:paused" ><d:name style="animation-play-state:paused" >illustrator</d:name>


<d:tags style="animation-play-state:paused" >illustrator,sketch,draw,paint,art,artwork,visual design,aesthetic,artist,comic,illustration,designer</d:tags>


<d:license style="animation-play-state:paused" >by</d:license>


<d:slug style="animation-play-state:paused" >4x9zax</d:slug></metadata></g><!-- generated by https://loading.io/ --></svg>