<?xml version="1.0" encoding="utf-8"?><svg xml:space="preserve" viewBox="0 0 100 100" y="0" x="0" xmlns="http://www.w3.org/2000/svg" id="Layer_1" version="1.1" width="128px" height="128px" xmlns:xlink="http://www.w3.org/1999/xlink" style="width:100%;height:100%;background-size:initial;background-repeat-y:initial;background-repeat-x:initial;background-position-y:initial;background-position-x:initial;background-origin:initial;background-image:initial;background-color:rgb(255, 255, 255);background-clip:initial;background-attachment:initial;animation-play-state:paused" ><g class="ldl-scale" style="transform-origin:50% 50%;transform:rotate(0deg) scale(0.8, 0.8);animation-play-state:paused" ><circle fill="#333" r="40" cy="50" cx="50" style="fill:rgb(51, 51, 51);animation-play-state:paused" ></circle>
<path fill="#fff" d="M71.42 36.953a9.258 9.258 0 0 0-5.806-3.89 9.309 9.309 0 0 0-1.864-.188 9.25 9.25 0 0 0-.837.042c-.062.006-.123.01-.185.017a9.014 9.014 0 0 0-.739.113c-.09.017-.179.038-.268.058a9.892 9.892 0 0 0-1.325.406 9.414 9.414 0 0 0-.875.393 9.327 9.327 0 0 0-1.229-.831l-.036-.022c-.152-.085-.31-.161-.468-.238-.096-.047-.19-.095-.288-.139a9.256 9.256 0 0 0-.426-.173 9.28 9.28 0 0 0-.775-.262 8.432 8.432 0 0 0-.449-.115c-.122-.028-.244-.057-.368-.081a9.733 9.733 0 0 0-.547-.084c-.102-.013-.202-.03-.305-.04a9.169 9.169 0 0 0-.882-.045c-.126 0-.249.014-.374.019l-.001-.001a9.013 9.013 0 0 0-.592-.767 8.903 8.903 0 0 0-.424-.466c-.065-.067-.133-.131-.201-.196a9.862 9.862 0 0 0-.4-.364c-.068-.058-.134-.116-.203-.172a9.054 9.054 0 0 0-.557-.416c-.067-.046-.135-.09-.203-.134a9.68 9.68 0 0 0-.536-.326c-.044-.025-.087-.052-.131-.076a8.917 8.917 0 0 0-.871-.409 9.313 9.313 0 0 0-.718-.263l-.135-.039a9.324 9.324 0 0 0-.691-.178c-.05-.011-.099-.023-.149-.033a9.042 9.042 0 0 0-.794-.121l-.175-.017a9.45 9.45 0 0 0-.846-.043c-.34 0-.674.021-1.004.057-.106.012-.209.033-.315.048a9.594 9.594 0 0 0-.661.113c-.119.026-.235.06-.352.091a9.732 9.732 0 0 0-.59.17c-.117.039-.232.083-.347.127a8.798 8.798 0 0 0-1.707.856 9.38 9.38 0 0 0-.533.371c-.08.059-.16.116-.238.178-.19.151-.37.311-.547.476-.053.05-.11.096-.162.147-.226.22-.441.45-.644.692a8.875 8.875 0 0 0-.941-.199c-.11-.018-.22-.036-.331-.051a9.544 9.544 0 0 0-.34-.036 8.897 8.897 0 0 0-.787-.04c-.639 0-1.262.065-1.864.188a9.258 9.258 0 0 0-5.806 3.89 9.235 9.235 0 0 0-1.532 6.09c.013.134.038.264.057.396.023.162.042.325.074.484.035.177.082.349.127.523.028.106.051.214.082.319.06.204.133.401.207.599.025.067.047.136.074.202.088.22.188.434.292.646.019.038.035.076.055.114.117.229.245.451.38.669l.029.048c.144.229.299.451.462.666l.008.01c.168.221.345.433.532.637-.016.051-.027.103-.042.154a9.2 9.2 0 0 0-.165.644c-.02.093-.037.188-.055.282a9.143 9.143 0 0 0-.088.578c-.011.088-.023.176-.031.265a8.804 8.804 0 0 0-.044.849c0 .639.065 1.262.188 1.864a9.258 9.258 0 0 0 3.89 5.806 9.21 9.21 0 0 0 5.172 1.58c.281 0 .557-.017.831-.042.087-.008.173-.018.259-.028.194-.023.387-.053.577-.088.089-.016.178-.029.266-.048a9.168 9.168 0 0 0 1.329-.397 9.314 9.314 0 0 0 1.569-.769c.201.18.409.351.625.514l.027.02c.207.154.42.3.64.437l.076.046c.207.126.417.245.634.355l.144.07c.199.097.401.189.608.272.077.031.156.057.233.085.185.068.371.135.562.192.113.034.229.059.344.088.163.041.326.086.492.118.163.032.329.052.495.076.127.018.252.042.38.054.299.029.602.046.91.046.257 0 .509-.018.761-.038a5.724 5.724 0 0 0 1.609 3.783 2.768 2.768 0 0 0-.366.202c-.048.031-.091.067-.136.101a2.79 2.79 0 0 0-.364.32 2.835 2.835 0 0 0-.226.274c-.022.03-.047.057-.068.088a2.893 2.893 0 0 0-.221.406c-.019.042-.033.086-.05.13a2.69 2.69 0 0 0-.107.344c-.011.047-.023.094-.032.142a2.634 2.634 0 0 0-.051.497 2.75 2.75 0 1 0 5.5 0 2.665 2.665 0 0 0-.084-.644c-.01-.041-.015-.084-.027-.124.12.007.239.018.361.018.196 0 .39-.01.581-.029.069-.007.136-.021.204-.03.12-.016.24-.031.358-.055.088-.018.174-.043.261-.065.094-.024.189-.044.282-.072.098-.03.192-.068.288-.103.077-.028.156-.053.231-.085.106-.044.208-.096.311-.146.06-.029.122-.056.181-.087.112-.059.219-.126.326-.193.046-.028.093-.054.138-.084.116-.076.226-.159.335-.243l.098-.073c.117-.094.229-.195.339-.298l.061-.055c.116-.112.226-.23.332-.351.011-.012.023-.024.033-.037.111-.13.216-.264.316-.404l.012-.016a5.716 5.716 0 0 0 1.052-3.087 9.207 9.207 0 0 0 5.738-2.184l.021-.02a9.47 9.47 0 0 0 .614-.571c.02-.02.037-.042.057-.063.181-.189.356-.382.521-.585.031-.039.059-.081.09-.12a9.45 9.45 0 0 0 .427-.582c.041-.061.075-.126.115-.189.117-.185.233-.37.336-.563.047-.087.085-.178.129-.267.087-.175.176-.349.251-.531.048-.114.085-.233.128-.349.06-.163.125-.323.177-.49.045-.145.077-.296.114-.445.037-.144.08-.285.109-.432.038-.189.061-.383.088-.576.015-.112.039-.221.05-.334a9.38 9.38 0 0 0 .047-.938c0-.27-.015-.536-.04-.799a8.965 8.965 0 0 0-.098-.738l.001-.001a9.257 9.257 0 0 0 1.55-2.113l.008-.016a9.1 9.1 0 0 0 .37-.779c.014-.034.024-.07.038-.104.097-.24.188-.483.265-.733.023-.074.037-.152.058-.227.06-.214.12-.427.164-.646.029-.142.044-.29.066-.434.024-.158.055-.313.071-.473.03-.306.046-.619.046-.935a9.204 9.204 0 0 0-1.58-5.172zm-36.754 7.592a1.033 1.033 0 0 1-1.032-1.032v-6.487a1.03 1.03 0 0 1 1.494-.923l4.718 2.359a1.032 1.032 0 0 1 .218 1.7l-4.718 4.128a1.036 1.036 0 0 1-.68.255zm15.521 5.365l-1.553 1.359-1.649-1.885-2.191 1.972-1.381-1.534 2.213-1.992-1.12-1.28 1.553-1.359 1.101 1.258 2.15-1.935 1.381 1.534-2.172 1.955 1.668 1.907zm-1.943-7.721l-.041-1.502a12.08 12.08 0 0 0-4.449 1.966 12.136 12.136 0 0 0-4.813 7.586l-2.03-.374a14.214 14.214 0 0 1 5.639-8.889 14.173 14.173 0 0 1 5.596-2.382l-.042-1.549 4.524 2.452-4.384 2.692zm5.442-1.625c0-2.195 1.786-3.981 3.981-3.981s3.981 1.786 3.981 3.981-1.786 3.981-3.981 3.981-3.981-1.786-3.981-3.981zm9.963 8.181c-.381.504-.826 1.03-1.35 1.594-2.125 2.288-4.2 3.834-6.343 4.726l-.793-1.905c1.864-.776 3.703-2.158 5.623-4.225.358-.386.67-.748.948-1.095l-1.344-.635 4.23-2.93.423 5.128-1.394-.658z" style="fill:rgb(255, 255, 255);animation-play-state:paused" ></path>
<circle fill="#fff" r="2" cy="70.125" cx="44.25" style="fill:rgb(255, 255, 255);animation-play-state:paused" ></circle>
<metadata xmlns:d="https://loading.io/stock/" style="animation-play-state:paused" ><d:name style="animation-play-state:paused" >planner</d:name>


<d:tags style="animation-play-state:paused" >planner,blueprint,strategy,tactics,idea,arrangement,manager,organizer,planning,plot,decision</d:tags>


<d:license style="animation-play-state:paused" >by</d:license>


<d:slug style="animation-play-state:paused" >ulf3xc</d:slug></metadata></g><!-- generated by https://loading.io/ --></svg>