<?xml version="1.0" encoding="utf-8"?><svg xml:space="preserve" viewBox="0 0 100 100" y="0" x="0" xmlns="http://www.w3.org/2000/svg" id="圖層_1" version="1.1" width="128px" height="128px" xmlns:xlink="http://www.w3.org/1999/xlink" style="width:100%;height:100%;background-size:initial;background-repeat-y:initial;background-repeat-x:initial;background-position-y:initial;background-position-x:initial;background-origin:initial;background-image:initial;background-color:rgb(255, 255, 255);background-clip:initial;background-attachment:initial;animation-play-state:paused" ><g class="ldl-scale" style="transform-origin:50% 50%;transform:rotate(0deg) scale(0.8, 0.8);animation-play-state:paused" ><circle fill="#333" r="40" cy="50" cx="50" style="fill:rgb(51, 51, 51);animation-play-state:paused" ></circle>
<path fill="#fff" d="M70.036 54.24h-2.822v-1.636a3.62 3.62 0 0 0-3.616-3.616H51.013V45.76h2.822a2.968 2.968 0 0 0 2.964-2.964v-7.669a2.968 2.968 0 0 0-2.964-2.964h-7.67a2.968 2.968 0 0 0-2.964 2.964v7.669a2.968 2.968 0 0 0 2.964 2.964h2.822v3.228H36.403a3.62 3.62 0 0 0-3.616 3.616v1.636h-2.822A2.968 2.968 0 0 0 27 57.204v7.67a2.968 2.968 0 0 0 2.964 2.964h7.669a2.968 2.968 0 0 0 2.964-2.964v-7.67a2.968 2.968 0 0 0-2.964-2.964h-2.822v-1.636c0-.878.714-1.591 1.591-1.591h12.585v3.228h-2.822a2.968 2.968 0 0 0-2.964 2.964v7.67a2.968 2.968 0 0 0 2.964 2.964h7.67a2.968 2.968 0 0 0 2.964-2.964v-7.67a2.968 2.968 0 0 0-2.964-2.964h-2.822v-3.228h12.585c.878 0 1.591.714 1.591 1.591v1.636h-2.822a2.968 2.968 0 0 0-2.964 2.964v7.67a2.968 2.968 0 0 0 2.964 2.964h7.67a2.968 2.968 0 0 0 2.964-2.964v-7.67a2.97 2.97 0 0 0-2.965-2.964zM46.165 43.735a.94.94 0 0 1-.939-.939v-7.669a.94.94 0 0 1 .939-.939h7.67a.94.94 0 0 1 .939.939v7.669a.94.94 0 0 1-.939.939h-7.67zm-8.531 12.53a.94.94 0 0 1 .939.939v7.67a.94.94 0 0 1-.939.939h-7.669a.94.94 0 0 1-.939-.939v-7.67a.94.94 0 0 1 .939-.939h7.669zm16.201 0a.94.94 0 0 1 .939.939v7.67a.94.94 0 0 1-.939.939h-7.67a.94.94 0 0 1-.939-.939v-7.67a.94.94 0 0 1 .939-.939h7.67zm17.14 8.609a.94.94 0 0 1-.939.939h-7.67a.94.94 0 0 1-.939-.939v-7.67a.94.94 0 0 1 .939-.939h7.669a.94.94 0 0 1 .939.939v7.67z" style="fill:rgb(255, 255, 255);animation-play-state:paused" ></path>
<metadata xmlns:d="https://loading.io/stock/" style="animation-play-state:paused" ><d:name style="animation-play-state:paused" >network</d:name>


<d:tags style="animation-play-state:paused" >network,hierarchy,social,management,company,connection,graph,chart,link,relationship,class</d:tags>


<d:license style="animation-play-state:paused" >by</d:license>


<d:slug style="animation-play-state:paused" >68u1kd</d:slug></metadata></g><!-- generated by https://loading.io/ --></svg>