<?xml version="1.0" encoding="utf-8"?><svg xml:space="preserve" viewBox="0 0 100 100" y="0" x="0" xmlns="http://www.w3.org/2000/svg" id="Layer_1" version="1.1" width="128px" height="128px" xmlns:xlink="http://www.w3.org/1999/xlink" style="width:100%;height:100%;background-size:initial;background-repeat-y:initial;background-repeat-x:initial;background-position-y:initial;background-position-x:initial;background-origin:initial;background-image:initial;background-color:rgb(255, 255, 255);background-clip:initial;background-attachment:initial;animation-play-state:paused" ><g class="ldl-scale" style="transform-origin:50% 50%;transform:rotate(0deg) scale(0.8, 0.8);animation-play-state:paused" ><circle fill="#333" r="40" cy="50" cx="50" style="fill:rgb(51, 51, 51);animation-play-state:paused" ></circle>
<path fill="#fff" d="M67.582 30.535H32.418A4.423 4.423 0 0 0 28 34.953v20.779a4.423 4.423 0 0 0 4.418 4.418h14.585v6.77H43.21a5.1 5.1 0 0 0-4.924 3.775l-.274 1.02h23.975l-.274-1.02a5.1 5.1 0 0 0-4.924-3.775h-3.793v-6.77h14.585a4.423 4.423 0 0 0 4.418-4.418V34.953a4.422 4.422 0 0 0-4.417-4.418zm1.176 25.197c0 .649-.527 1.176-1.176 1.176H32.418a1.177 1.177 0 0 1-1.176-1.176V34.953c0-.649.527-1.176 1.176-1.176h35.164c.649 0 1.176.527 1.176 1.176v20.779z" style="fill:rgb(255, 255, 255);animation-play-state:paused" ></path>
<g style="animation-play-state:paused" ><path fill="#fff" d="M41.614 43.808v-3.479c0-.284.339-.626.761-.626h1.5c.502 0 .84-.321.84-.798 0-.478-.345-.812-.84-.812h-1.399c-1.628 0-2.81.981-2.81 2.332v3.206c0 .163 0 .66-.908.863l-.508.093V46.1l.499.09c.917.205.917.702.917.866v3.205c0 1.352 1.182 2.333 2.81 2.333h1.399c.495 0 .84-.333.84-.812 0-.478-.337-.798-.84-.798h-1.5c-.422 0-.761-.343-.761-.626v-3.479c0-.456-.189-.872-.58-1.273a2.464 2.464 0 0 0-.308-.261 2.67 2.67 0 0 0 .311-.264c.388-.401.577-.816.577-1.273z" style="fill:rgb(255, 255, 255);animation-play-state:paused" ></path>
<path fill="#fff" d="M53.864 43.455c0-.503-.54-1.177-1.092-1.177a.684.684 0 0 0-.447.159l-1.532 1.559.204-2.153a.514.514 0 0 0-.125-.421c-.209-.246-.64-.356-.879-.356-.225 0-.655.114-.864.359a.502.502 0 0 0-.127.401l.191 2.155-1.543-1.568a.686.686 0 0 0-.421-.135c-.552 0-1.092.674-1.092 1.177 0 .273.097.453.242.508l1.967 1.38-1.948 1.367c-.262.149-.262.428-.262.52 0 .514.53 1.177 1.092 1.177.102 0 .292 0 .449-.159l1.516-1.542-.189 2.137c-.023.15.02.294.125.418.209.245.64.359.864.359.239 0 .669-.11.879-.356a.504.504 0 0 0 .127-.406l-.206-2.168 1.532 1.558c.157.159.345.159.447.159.562 0 1.092-.663 1.092-1.177 0-.09 0-.363-.249-.514l-1.961-1.374 1.923-1.354c.19-.08.287-.26.287-.533z" style="fill:rgb(255, 255, 255);animation-play-state:paused" ></path>
<path fill="#fff" d="M61.254 44.496c-.917-.21-.917-.704-.917-.866v-3.206c0-1.351-1.183-2.332-2.812-2.332h-1.398c-.495 0-.84.333-.84.812 0 .477.337.798.84.798h1.5c.422 0 .761.343.761.626v3.479c0 .456.188.871.579 1.274.095.094.197.18.309.261a2.638 2.638 0 0 0-.312.264c-.387.4-.575.815-.575 1.27v3.479c0 .284-.339.626-.761.626h-1.5c-.502 0-.84.321-.84.798 0 .478.345.812.84.812h1.398c1.629 0 2.812-.981 2.812-2.333v-3.205c0-.162 0-.656.906-.864l.509-.092v-1.513l-.499-.088z" style="fill:rgb(255, 255, 255);animation-play-state:paused" ></path></g>
<metadata xmlns:d="https://loading.io/stock/" style="animation-play-state:paused" ><d:name style="animation-play-state:paused" >css</d:name>


<d:tags style="animation-play-state:paused" >css,developer,code,frontend,web,engineer,coding,hack,software</d:tags>


<d:license style="animation-play-state:paused" >by</d:license>


<d:slug style="animation-play-state:paused" >is7efl</d:slug></metadata></g><!-- generated by https://loading.io/ --></svg>